<svg width="103" height="21" viewBox="0 0 103 21" fill="none" xmlns="http://www.w3.org/2000/svg">
<path d="M88.494 20.5801C86.9634 20.5801 85.6194 20.2488 84.462 19.5861C83.3047 18.9235 82.3994 18.0041 81.746 16.8281C81.102 15.6521 80.78 14.2988 80.78 12.7681C80.78 11.1161 81.0974 9.68345 81.732 8.47012C82.3667 7.24745 83.2487 6.30012 84.378 5.62812C85.5074 4.95612 86.814 4.62012 88.298 4.62012C89.866 4.62012 91.196 4.98878 92.288 5.72612C93.3894 6.45412 94.206 7.48545 94.738 8.82012C95.27 10.1548 95.4707 11.7275 95.34 13.5381H91.994V12.3061C91.9847 10.6635 91.6954 9.46412 91.126 8.70812C90.5567 7.95212 89.6607 7.57412 88.438 7.57412C87.0567 7.57412 86.03 8.00345 85.358 8.86212C84.686 9.71145 84.35 10.9575 84.35 12.6001C84.35 14.1308 84.686 15.3161 85.358 16.1561C86.03 16.9961 87.01 17.4161 88.298 17.4161C89.1287 17.4161 89.8427 17.2341 90.44 16.8701C91.0467 16.4968 91.5134 15.9601 91.84 15.2601L95.172 16.2681C94.5934 17.6308 93.6974 18.6901 92.484 19.4461C91.28 20.2021 89.95 20.5801 88.494 20.5801ZM83.286 13.5381V10.9901H93.688V13.5381H83.286Z" fill="black"></path>
<path d="M71.6899 20.16V5.04H74.6719V8.722L74.3079 8.246C74.4946 7.742 74.7419 7.28467 75.0499 6.874C75.3673 6.454 75.7453 6.10867 76.1839 5.838C76.5573 5.586 76.9679 5.39 77.4159 5.25C77.8733 5.10067 78.3399 5.012 78.8159 4.984C79.2919 4.94667 79.7539 4.96533 80.2019 5.04V8.19C79.7539 8.05933 79.2359 8.01733 78.6479 8.064C78.0693 8.11067 77.5466 8.274 77.0799 8.554C76.6133 8.806 76.2306 9.128 75.9319 9.52C75.6426 9.912 75.4279 10.36 75.2879 10.864C75.1479 11.3587 75.0779 11.8953 75.0779 12.474V20.16H71.6899Z" fill="black"></path>
<path d="M60.8125 20.594C59.6925 20.594 58.7686 20.4074 58.0406 20.034C57.3126 19.6607 56.7339 19.1847 56.3046 18.606C55.8752 18.0274 55.5579 17.4114 55.3525 16.758C55.1472 16.1047 55.0119 15.4887 54.9465 14.91C54.8905 14.322 54.8625 13.846 54.8625 13.482V5.04004H58.2785V12.32C58.2785 12.7867 58.3112 13.314 58.3765 13.902C58.4419 14.4807 58.5912 15.0407 58.8246 15.582C59.0672 16.114 59.4219 16.5527 59.8885 16.898C60.3645 17.2434 61.0039 17.416 61.8065 17.416C62.2359 17.416 62.6606 17.346 63.0806 17.206C63.5006 17.066 63.8785 16.828 64.2145 16.492C64.5599 16.1467 64.8352 15.6754 65.0406 15.078C65.2459 14.4807 65.3485 13.7247 65.3485 12.81L67.3505 13.664C67.3505 14.952 67.0986 16.1187 66.5946 17.164C66.0999 18.2094 65.3672 19.0447 64.3966 19.67C63.4259 20.286 62.2312 20.594 60.8125 20.594ZM65.7545 20.16V15.47H65.3485V5.04004H68.7365V20.16H65.7545Z" fill="black"></path>
<path d="M52.8711 20.1598C51.8724 20.3465 50.8924 20.4258 49.9311 20.3978C48.9791 20.3792 48.1251 20.2065 47.3691 19.8798C46.6131 19.5438 46.0391 19.0165 45.6471 18.2978C45.3018 17.6445 45.1198 16.9772 45.1011 16.2958C45.0824 15.6145 45.0731 14.8445 45.0731 13.9858V0.839844H48.4331V13.7898C48.4331 14.3965 48.4378 14.9285 48.4471 15.3858C48.4658 15.8432 48.5638 16.2165 48.7411 16.5058C49.0771 17.0658 49.6138 17.3785 50.3511 17.4438C51.0884 17.5092 51.9284 17.4718 52.8711 17.3318V20.1598ZM42.3291 7.68584V5.03984H52.8711V7.68584H42.3291Z" fill="black"></path>
<path d="M33.0844 20.5801C31.9924 20.5801 31.0684 20.3748 30.3124 19.9641C29.5564 19.5441 28.9824 18.9888 28.5904 18.2981C28.2077 17.6075 28.0164 16.8468 28.0164 16.0161C28.0164 15.2881 28.1377 14.6348 28.3804 14.0561C28.623 13.4681 28.9964 12.9641 29.5004 12.5441C30.0044 12.1148 30.6577 11.7648 31.4604 11.4941C32.067 11.2981 32.7764 11.1208 33.5884 10.9621C34.4097 10.8035 35.2964 10.6588 36.2484 10.5281C37.2097 10.3881 38.213 10.2388 39.2584 10.0801L38.0544 10.7661C38.0637 9.72078 37.8304 8.95078 37.3544 8.45612C36.8784 7.96145 36.0757 7.71412 34.9464 7.71412C34.265 7.71412 33.607 7.87278 32.9724 8.19012C32.3377 8.50745 31.8944 9.05345 31.6424 9.82812L28.5624 8.86212C28.9357 7.58345 29.645 6.55678 30.6904 5.78212C31.745 5.00745 33.1637 4.62012 34.9464 4.62012C36.2904 4.62012 37.471 4.83945 38.4884 5.27812C39.515 5.71678 40.2757 6.43545 40.7704 7.43412C41.041 7.96612 41.2044 8.51212 41.2604 9.07212C41.3164 9.62278 41.3444 10.2248 41.3444 10.8781V20.1601H38.3904V16.8841L38.8804 17.4161C38.199 18.5081 37.401 19.3108 36.4864 19.8241C35.581 20.3281 34.447 20.5801 33.0844 20.5801ZM33.7564 17.8921C34.5217 17.8921 35.175 17.7568 35.7164 17.4861C36.2577 17.2155 36.687 16.8841 37.0044 16.4921C37.331 16.1001 37.5504 15.7315 37.6624 15.3861C37.8397 14.9568 37.9377 14.4668 37.9564 13.9161C37.9844 13.3561 37.9984 12.9034 37.9984 12.5581L39.0344 12.8661C38.017 13.0248 37.1444 13.1648 36.4164 13.2861C35.6884 13.4075 35.063 13.5241 34.5404 13.6361C34.0177 13.7388 33.5557 13.8555 33.1544 13.9861C32.7624 14.1261 32.431 14.2895 32.1604 14.4761C31.8897 14.6628 31.6797 14.8774 31.5304 15.1201C31.3904 15.3628 31.3204 15.6474 31.3204 15.9741C31.3204 16.3474 31.4137 16.6788 31.6004 16.9681C31.787 17.2481 32.0577 17.4721 32.4124 17.6401C32.7764 17.8081 33.2244 17.8921 33.7564 17.8921Z" fill="black"></path>
<path d="M20.14 20.5801C18.6094 20.5801 17.2654 20.2488 16.108 19.5861C14.9507 18.9235 14.0454 18.0041 13.392 16.8281C12.748 15.6521 12.426 14.2988 12.426 12.7681C12.426 11.1161 12.7434 9.68345 13.378 8.47012C14.0127 7.24745 14.8947 6.30012 16.024 5.62812C17.1534 4.95612 18.46 4.62012 19.944 4.62012C21.512 4.62012 22.842 4.98878 23.934 5.72612C25.0354 6.45412 25.852 7.48545 26.384 8.82012C26.916 10.1548 27.1167 11.7275 26.986 13.5381H23.64V12.3061C23.6307 10.6635 23.3414 9.46412 22.772 8.70812C22.2027 7.95212 21.3067 7.57412 20.084 7.57412C18.7027 7.57412 17.676 8.00345 17.004 8.86212C16.332 9.71145 15.996 10.9575 15.996 12.6001C15.996 14.1308 16.332 15.3161 17.004 16.1561C17.676 16.9961 18.656 17.4161 19.944 17.4161C20.7747 17.4161 21.4887 17.2341 22.086 16.8701C22.6927 16.4968 23.1594 15.9601 23.486 15.2601L26.818 16.2681C26.2394 17.6308 25.3434 18.6901 24.13 19.4461C22.926 20.2021 21.596 20.5801 20.14 20.5801ZM14.932 13.5381V10.9901H25.334V13.5381H14.932Z" fill="black"></path>
<path d="M0 20.16V0H12.138V3.374H3.374V8.4H10.458V11.76H3.374V20.16H0Z" fill="black"></path>
<circle cx="99.8787" cy="18.0942" r="2.5" fill="#4069F3"></circle>
</svg>
